# xmcd CD database file
#
# Track frame offsets:
#	150
#	18037
#	39015
#	56390
#	71240
#	91505
#	106407
#	120685
#	140152
#	161287
#	177892
#
# Disc length: 2631 seconds
#
# Revision: 0
# Processed by: cddbd v1.5.2PL0 Copyright (c) Steve Scherf et al.
# Submitted via: CDex 1.70beta2
#
DISCID=810a450b
DTITLE=Robin Auld - Love Kills
DYEAR=1991
DGENRE=Rhythmic Soul
TTITLE0=Love Kills
TTITLE1=Perfect Day
TTITLE2=Mandy
TTITLE3=Waiting For You
TTITLE4=Dirty Mind
TTITLE5=Lucy
TTITLE6=Charlie Go Crazy
TTITLE7=The Promise
TTITLE8=Tiny's Resistance
TTITLE9=Sasolburg
TTITLE10=Esmerelda
EXTD=YEAR: 1991
EXTT0=
EXTT1=
EXTT2=
EXTT3=
EXTT4=
EXTT5=
EXTT6=
EXTT7=
EXTT8=
EXTT9=
EXTT10=
PLAYORDER=
